<svg data-v-fde0c5aa="" xmlns="http://www.w3.org/2000/svg" viewBox="0 0 300 300" class="iconLeft"><!----><defs data-v-fde0c5aa=""><!----></defs><rect data-v-fde0c5aa="" fill="transparent" x="0" y="0" width="300px" height="300px" class="logo-background-square"></rect><defs data-v-fde0c5aa=""><!----></defs><g data-v-fde0c5aa="" id="8f6078db-4b75-408d-92c2-50a32bcdda73" fill="#000000" transform="matrix(2.7446300641955834,0,0,2.7446300641955834,108.30429084210795,132.70883056284927)"><path d="M4.27 6.43L2.73 6.43L2.73 10.50L0.85 10.50L0.85-0.42L4.27-0.42L4.27-0.42Q7.92-0.42 7.92 2.86L7.92 2.86L7.92 3.14L7.92 3.14Q7.92 6.43 4.27 6.43L4.27 6.43ZM2.73 1.22L2.73 4.79L4.34 4.79L4.34 4.79Q6.02 4.79 6.02 3.08L6.02 3.08L6.02 2.93L6.02 2.93Q6.02 1.22 4.34 1.22L4.34 1.22L2.73 1.22ZM15.60 6.61L15.60 7.46L10.70 7.46L10.70 7.46Q10.79 9.27 12.36 9.27L12.36 9.27L12.36 9.27Q13.06 9.27 13.47 8.93L13.47 8.93L13.47 8.93Q13.87 8.58 13.87 8.12L13.87 8.12L15.60 8.12L15.60 8.18L15.60 8.18Q15.60 9.23 14.73 9.95L14.73 9.95L14.73 9.95Q13.87 10.68 12.35 10.68L12.35 10.68L12.35 10.68Q10.63 10.68 9.75 9.66L9.75 9.66L9.75 9.66Q8.88 8.64 8.88 6.97L8.88 6.97L8.88 6.61L8.88 6.61Q8.88 4.94 9.74 3.92L9.74 3.92L9.74 3.92Q10.61 2.90 12.28 2.90L12.28 2.90L12.28 2.90Q13.92 2.90 14.76 3.92L14.76 3.92L14.76 3.92Q15.60 4.94 15.60 6.61L15.60 6.61ZM12.24 4.31L12.24 4.31L12.24 4.31Q10.81 4.31 10.70 6.12L10.70 6.12L13.76 6.12L13.76 6.12Q13.68 4.31 12.24 4.31ZM23.34 6.61L23.34 7.46L18.44 7.46L18.44 7.46Q18.54 9.27 20.10 9.27L20.10 9.27L20.10 9.27Q20.80 9.27 21.21 8.93L21.21 8.93L21.21 8.93Q21.62 8.58 21.62 8.12L21.62 8.12L23.34 8.12L23.34 8.18L23.34 8.18Q23.34 9.23 22.48 9.95L22.48 9.95L22.48 9.95Q21.62 10.68 20.09 10.68L20.09 10.68L20.09 10.68Q18.37 10.68 17.49 9.66L17.49 9.66L17.49 9.66Q16.62 8.64 16.62 6.97L16.62 6.97L16.62 6.61L16.62 6.61Q16.62 4.94 17.49 3.92L17.49 3.92L17.49 3.92Q18.35 2.90 20.02 2.90L20.02 2.90L20.02 2.90Q21.66 2.90 22.50 3.92L22.50 3.92L22.50 3.92Q23.34 4.94 23.34 6.61L23.34 6.61ZM19.98 4.31L19.98 4.31L19.98 4.31Q18.55 4.31 18.44 6.12L18.44 6.12L21.50 6.12L21.50 6.12Q21.42 4.31 19.98 4.31ZM28.31 2.90L28.31 2.90L28.31 2.90Q28.35 2.90 28.43 2.91L28.43 2.91L28.43 2.91Q28.50 2.91 28.52 2.91L28.52 2.91L28.52 4.68L28.21 4.68L28.21 4.68Q27.01 4.68 26.49 5.46L26.49 5.46L26.49 10.50L24.67 10.50L24.67 5.18L24.54 3.08L26.15 3.08L26.31 3.98L26.31 3.98Q27.05 2.90 28.31 2.90ZM33.60 10.68L33.60 10.68L33.60 10.68Q32.33 10.68 31.63 9.81L31.63 9.81L31.63 13.30L29.81 13.30L29.81 5.18L29.69 3.08L31.30 3.08L31.46 4.00L31.46 4.00Q32.17 2.90 33.60 2.90L33.60 2.90L33.60 2.90Q36.37 2.90 36.37 6.57L36.37 6.57L36.37 7.01L36.37 7.01Q36.37 8.71 35.71 9.70L35.71 9.70L35.71 9.70Q35.04 10.68 33.60 10.68ZM31.63 5.33L31.63 5.33L31.63 8.25L31.63 8.25Q32.16 9.09 33.08 9.09L33.08 9.09L33.08 9.09Q34.55 9.09 34.55 7.01L34.55 7.01L34.55 6.57L34.55 6.57Q34.55 4.48 33.08 4.48L33.08 4.48L33.08 4.48Q32.17 4.48 31.63 5.33ZM39.55 10.50L37.73 10.50L37.73-0.70L39.55-0.70L39.55 10.50ZM47.28 10.50L45.67 10.50L45.53 9.65L45.53 9.65Q44.63 10.68 43.11 10.68L43.11 10.68L43.11 10.68Q41.99 10.68 41.43 10.07L41.43 10.07L41.43 10.07Q40.87 9.45 40.87 8.50L40.87 8.50L40.87 8.36L40.87 8.36Q40.87 7.24 41.55 6.73L41.55 6.73L41.55 6.73Q42.22 6.22 43.46 6.03L43.46 6.03L45.35 5.74L45.35 5.71L45.35 5.71Q45.35 4.98 45.07 4.65L45.07 4.65L45.07 4.65Q44.80 4.31 44.11 4.31L44.11 4.31L44.11 4.31Q42.88 4.31 42.88 5.53L42.88 5.53L41.15 5.53L41.15 5.40L41.15 5.40Q41.15 4.33 41.84 3.61L41.84 3.61L41.84 3.61Q42.53 2.90 44.16 2.90L44.16 2.90L44.16 2.90Q45.81 2.90 46.49 3.61L46.49 3.61L46.49 3.61Q47.17 4.33 47.17 5.71L47.17 5.71L47.17 8.40L47.28 10.50ZM43.74 9.18L43.74 9.18L43.74 9.18Q44.77 9.18 45.35 8.41L45.35 8.41L45.35 6.85L43.79 7.10L43.79 7.10Q42.69 7.28 42.69 8.16L42.69 8.16L42.69 8.27L42.69 8.27Q42.69 8.65 42.95 8.92L42.95 8.92L42.95 8.92Q43.22 9.18 43.74 9.18ZM50.05 3.08L51.67 8.23L53.31 3.08L55.27 3.08L52.65 10.14L51.67 13.30L49.52 13.30L50.69 10.14L48.08 3.08L50.05 3.08Z"></path></g><defs data-v-fde0c5aa=""><linearGradient data-v-fde0c5aa="" gradientTransform="rotate(25)" id="ae4264ba-3d69-4d0a-b563-12b1507bae14" x1="0%" y1="0%" x2="100%" y2="0%"><stop data-v-fde0c5aa="" offset="0%" stop-color="#666C35" stop-opacity="1"></stop><stop data-v-fde0c5aa="" offset="100%" stop-color="#77D636" stop-opacity="1"></stop></linearGradient></defs><g data-v-fde0c5aa="" id="7b7a4c85-bdba-495d-b903-d1831e9d759c" stroke="none" fill="url(#ae4264ba-3d69-4d0a-b563-12b1507bae14)" transform="matrix(0.6404172647093527,0,0,0.6404172647093527,36.79775335471024,117.9791376806566)"><path d="M52.014 59.034a2.315 2.315 0 0 1 0 3.272L38.813 75.507a.457.457 0 0 0 .646.646L50.7 64.911a2.314 2.314 0 0 1 3.272 3.272L41.04 81.117a.466.466 0 0 0 .657.657l5.62-5.62a2.313 2.313 0 1 1 3.273 3.272L38.943 91.072c-5.238 5.237-13.73 5.237-18.967 0-5.231-5.231-5.246-13.719-.017-18.948l9.037-9.038c1.394-1.395 1.645-1.627 2.549-.723 1.582 1.582.903 3.793 0 4.697l-3.74 3.74a.464.464 0 1 0 .656.656l14.392-14.392a2.315 2.315 0 0 1 3.273 3.273L34.884 71.578a.464.464 0 1 0 .657.657l13.2-13.2a2.315 2.315 0 0 1 3.273 0zM47.986 40.966a2.315 2.315 0 0 1 0-3.272l13.201-13.201a.457.457 0 0 0-.645-.646L49.3 35.089a2.314 2.314 0 0 1-3.272-3.272L58.96 18.883a.466.466 0 0 0-.657-.657l-5.62 5.62a2.313 2.313 0 1 1-3.273-3.272L61.057 8.928c5.238-5.237 13.73-5.237 18.967 0 5.231 5.231 5.246 13.719.017 18.948l-9.037 9.038c-1.394 1.395-1.645 1.627-2.549.723-1.582-1.582-.903-3.793 0-4.697l3.74-3.74a.464.464 0 1 0-.656-.656L57.147 42.936a2.315 2.315 0 0 1-3.273-3.273l11.242-11.241a.464.464 0 1 0-.657-.657l-13.2 13.2a2.315 2.315 0 0 1-3.273 0zM40.966 52.014a2.315 2.315 0 0 1-3.272 0L24.493 38.813a.457.457 0 0 0-.646.646L35.089 50.7a2.314 2.314 0 0 1-3.272 3.272L18.883 41.04a.466.466 0 0 0-.657.657l5.62 5.62a2.313 2.313 0 1 1-3.272 3.273L8.928 38.943c-5.237-5.238-5.237-13.73 0-18.967 5.231-5.231 13.719-5.246 18.948-.017l9.038 9.037c1.395 1.394 1.627 1.645.723 2.549-1.582 1.582-3.793.903-4.697 0l-3.74-3.74a.464.464 0 1 0-.656.656l14.392 14.392a2.315 2.315 0 0 1-3.273 3.273L28.422 34.884a.464.464 0 1 0-.657.657l13.2 13.2c.903.903.903 2.37 0 3.273zM59.034 47.986a2.315 2.315 0 0 1 3.272 0l13.201 13.201a.457.457 0 0 0 .646-.646L64.911 49.3a2.314 2.314 0 0 1 3.272-3.272L81.117 58.96a.466.466 0 0 0 .657-.657l-5.62-5.62a2.313 2.313 0 1 1 3.272-3.273l11.646 11.646c5.237 5.238 5.237 13.73 0 18.967-5.231 5.231-13.719 5.246-18.948.017l-9.038-9.037c-1.395-1.394-1.627-1.644-.723-2.548 1.582-1.583 3.793-.904 4.697 0l3.74 3.74a.464.464 0 1 0 .656-.657L57.064 57.147a2.315 2.315 0 0 1 3.273-3.273l11.241 11.242a.464.464 0 1 0 .657-.657l-13.2-13.2a2.315 2.315 0 0 1 0-3.273z"></path></g><!----></svg>