<svg data-v-423bf9ae="" xmlns="http://www.w3.org/2000/svg" viewBox="0 0 373 90" class="iconLeft"><!----><!----><!----><g data-v-423bf9ae="" id="95618d30-4d5b-463c-a769-d0e0d26626c8" fill="#FFFFFF" transform="matrix(4.535147222295708,0,0,4.535147222295708,104.3310598031849,0.07936724216072832)"><path d="M5.99 3.99C5.52 3.93 5.15 3.92 4.59 3.92L1.25 3.92L1.25 13.58L3.18 13.58L3.18 9.94L4.59 9.94C5.15 9.94 5.52 9.93 5.99 9.87C7.39 9.70 8.60 8.71 8.60 6.93C8.60 5.15 7.46 4.16 5.99 3.99ZM5.42 8.37C5.21 8.40 4.91 8.41 4.56 8.41L3.18 8.41L3.18 5.45L4.56 5.45C4.91 5.45 5.21 5.46 5.42 5.49C6.09 5.59 6.57 6.02 6.57 6.93C6.57 7.84 6.09 8.27 5.42 8.37ZM16.37 9.70C16.37 7.67 15.16 5.94 12.88 5.94C10.60 5.94 9.10 7.60 9.10 9.88C9.10 12.50 10.68 13.78 12.73 13.78C14.48 13.78 15.88 12.89 16.25 11.16L14.32 11.16C14.20 11.96 13.59 12.42 12.77 12.42C11.87 12.42 11.17 11.93 11.05 10.36L16.34 10.36C16.37 10.11 16.37 9.88 16.37 9.70ZM12.80 7.29C13.72 7.29 14.25 7.92 14.38 9.10L11.10 9.10C11.27 7.87 11.90 7.29 12.80 7.29ZM24.46 9.70C24.46 7.67 23.25 5.94 20.97 5.94C18.69 5.94 17.19 7.60 17.19 9.88C17.19 12.50 18.77 13.78 20.82 13.78C22.57 13.78 23.97 12.89 24.35 11.16L22.41 11.16C22.29 11.96 21.69 12.42 20.86 12.42C19.96 12.42 19.26 11.93 19.14 10.36L24.43 10.36C24.46 10.11 24.46 9.88 24.46 9.70ZM20.89 7.29C21.81 7.29 22.34 7.92 22.47 9.10L19.19 9.10C19.36 7.87 19.99 7.29 20.89 7.29ZM29.58 5.95C29.16 5.95 28.67 6.12 28.31 6.45L27.72 7.49L27.72 6.13L25.79 6.13L25.79 13.58L27.72 13.58L27.72 10.16C27.72 8.16 28.52 7.45 30.13 7.56L30.13 6.01C29.96 5.96 29.81 5.95 29.58 5.95ZM35.53 5.94C34.78 5.94 34.02 6.12 33.60 6.45L33.04 7.27L33.04 6.13L31.11 6.13L31.11 16.32L33.04 16.32L33.04 12.59L33.53 13.36C33.91 13.62 34.66 13.78 35.28 13.78C37.20 13.78 38.85 12.40 38.85 9.72C38.85 7.52 37.62 5.94 35.53 5.94ZM34.90 12.42C34.01 12.42 33.04 11.82 33.04 10.12L33.04 9.77C33.04 7.95 33.91 7.29 34.97 7.29C36.12 7.29 36.85 8.32 36.85 9.84C36.85 11.56 36.02 12.42 34.90 12.42ZM41.99 3.29L40.05 3.29L40.05 11.19C40.05 11.68 40.05 12.03 40.08 12.36C40.12 13.33 40.73 13.68 41.68 13.68C42.11 13.68 42.49 13.66 42.87 13.62L42.87 12.29C42.21 12.33 42.04 12.21 42 11.83C41.99 11.63 41.99 11.44 41.99 11.14ZM48.54 13.58L50.43 13.58C50.32 12.75 50.29 12.25 50.29 11.69L50.29 9.28C50.29 8.88 50.27 8.48 50.25 8.13C50.13 6.85 49.35 5.94 47.26 5.94C45.49 5.94 44.13 6.89 44.07 8.57L45.95 8.55C46.00 7.74 46.42 7.29 47.19 7.29C47.95 7.29 48.29 7.67 48.34 8.19C48.37 8.44 48.37 8.67 48.37 8.89L48.37 9.04L47.89 9.04C45.19 9.04 43.79 9.97 43.79 11.61C43.79 13.02 44.90 13.78 46.19 13.78C46.89 13.78 47.52 13.64 48.03 13.29L48.40 12.49ZM46.93 12.42C46.24 12.42 45.79 12.11 45.79 11.45C45.79 10.47 46.83 10.12 48.37 10.23L48.37 10.84C48.37 11.87 47.71 12.42 46.93 12.42ZM59.14 6.13L57.02 6.13L55.20 12.11L53.35 6.13L51.20 6.13L54.24 13.93L54.14 14.17C53.83 14.91 53.40 15.16 52.74 15.16C52.54 15.16 52.36 15.16 52.16 15.13L52.16 16.46C52.44 16.51 52.68 16.52 53.03 16.52C54.54 16.52 55.36 15.88 56.14 13.86Z"></path></g><!----><g data-v-423bf9ae="" id="f3f30aef-e6fa-469b-b0c9-b733e84b726c" transform="matrix(1.000005594920626,0,0,1.000005594920626,-5.000024161285154,-5.000027976003757)" stroke="none" fill="#289935"><path d="M52.014 59.034a2.315 2.315 0 0 1 0 3.272L38.813 75.507a.457.457 0 0 0 .646.646L50.7 64.911a2.314 2.314 0 0 1 3.272 3.272L41.04 81.117a.466.466 0 0 0 .657.657l5.62-5.62a2.313 2.313 0 1 1 3.273 3.272L38.943 91.072c-5.238 5.237-13.73 5.237-18.967 0-5.231-5.231-5.246-13.719-.017-18.948l9.037-9.038c1.394-1.395 1.645-1.627 2.549-.723 1.582 1.582.903 3.793 0 4.697l-3.74 3.74a.464.464 0 1 0 .656.656l14.392-14.392a2.315 2.315 0 0 1 3.273 3.273L34.884 71.578a.464.464 0 1 0 .657.657l13.2-13.2a2.315 2.315 0 0 1 3.273 0zM47.986 40.966a2.315 2.315 0 0 1 0-3.272l13.201-13.201a.457.457 0 0 0-.645-.646L49.3 35.089a2.314 2.314 0 0 1-3.272-3.272L58.96 18.883a.466.466 0 0 0-.657-.657l-5.62 5.62a2.313 2.313 0 1 1-3.273-3.272L61.057 8.928c5.238-5.237 13.73-5.237 18.967 0 5.231 5.231 5.246 13.719.017 18.948l-9.037 9.038c-1.394 1.395-1.645 1.627-2.549.723-1.582-1.582-.903-3.793 0-4.697l3.74-3.74a.464.464 0 1 0-.656-.656L57.147 42.936a2.315 2.315 0 0 1-3.273-3.273l11.242-11.241a.464.464 0 1 0-.657-.657l-13.2 13.2a2.315 2.315 0 0 1-3.273 0zM40.966 52.014a2.315 2.315 0 0 1-3.272 0L24.493 38.813a.457.457 0 0 0-.646.646L35.089 50.7a2.314 2.314 0 0 1-3.272 3.272L18.883 41.04a.466.466 0 0 0-.657.657l5.62 5.62a2.313 2.313 0 1 1-3.272 3.273L8.928 38.943c-5.237-5.238-5.237-13.73 0-18.967 5.231-5.231 13.719-5.246 18.948-.017l9.038 9.037c1.395 1.394 1.627 1.645.723 2.549-1.582 1.582-3.793.903-4.697 0l-3.74-3.74a.464.464 0 1 0-.656.656l14.392 14.392a2.315 2.315 0 0 1-3.273 3.273L28.422 34.884a.464.464 0 1 0-.657.657l13.2 13.2c.903.903.903 2.37 0 3.273zM59.034 47.986a2.315 2.315 0 0 1 3.272 0l13.201 13.201a.457.457 0 0 0 .646-.646L64.911 49.3a2.314 2.314 0 0 1 3.272-3.272L81.117 58.96a.466.466 0 0 0 .657-.657l-5.62-5.62a2.313 2.313 0 1 1 3.272-3.273l11.646 11.646c5.237 5.238 5.237 13.73 0 18.967-5.231 5.231-13.719 5.246-18.948.017l-9.038-9.037c-1.395-1.394-1.627-1.644-.723-2.548 1.582-1.583 3.793-.904 4.697 0l3.74 3.74a.464.464 0 1 0 .656-.657L57.064 57.147a2.315 2.315 0 0 1 3.273-3.273l11.241 11.242a.464.464 0 1 0 .657-.657l-13.2-13.2a2.315 2.315 0 0 1 0-3.273z"></path></g><!----></svg>